<svg xmlns="http://www.w3.org/2000/svg" xmlns:xlink="http://www.w3.org/1999/xlink" viewBox="0 0 111.5 111.5"><defs><style>.cls-1,.cls-6,.cls-8{fill:none;}.cls-2{fill:#ff2397;}.cls-3{opacity:0.3;}.cls-4{clip-path:url(#clip-path);}.cls-5{fill:#fff;}.cls-6,.cls-8{stroke:#fff;stroke-linecap:round;stroke-linejoin:round;}.cls-6{stroke-width:3px;}.cls-7{clip-path:url(#clip-path-2);}.cls-8{stroke-width:2px;}</style><clipPath id="clip-path"><rect class="cls-1" x="17.37" y="37.37" width="38.37" height="27"/></clipPath><clipPath id="clip-path-2"><rect class="cls-1" x="55.75" y="37.37" width="38.38" height="27"/></clipPath></defs><title>Asset 1</title><g id="Layer_2" data-name="Layer 2"><g id="Layer_1-2" data-name="Layer 1"><path class="cls-2" d="M55.75,111.5h0A55.75,55.75,0,1,1,111.5,55.75,55.75,55.75,0,0,1,55.75,111.5"/><g class="cls-3"><g class="cls-4"><path class="cls-5" d="M55.75,61.27s-4.24-31-38.38-22.4c0,0,6.54,36.1,38.38,22.4"/></g></g><path class="cls-6" d="M55.75,61.27s-4.24-31-38.38-22.4C17.37,38.87,23.91,75,55.75,61.27Z"/><path class="cls-6" d="M29.65,47.51s18.06,4.13,26.1,13.76"/><g class="cls-3"><g class="cls-7"><path class="cls-5" d="M55.75,61.27s4.23-31,38.37-22.4c0,0-6.53,36.1-38.37,22.4"/></g></g><path class="cls-6" d="M55.75,61.27s4.23-31,38.37-22.4C94.12,38.87,87.59,75,55.75,61.27Z"/><path class="cls-6" d="M55.75,93.16V61.27c8-9.63,26.1-13.76,26.1-13.76"/><path class="cls-8" d="M104.41,55.49A48.66,48.66,0,1,1,55.75,6.83,48.67,48.67,0,0,1,104.41,55.49Z"/></g></g></svg>