<svg xmlns="http://www.w3.org/2000/svg" xmlns:xlink="http://www.w3.org/1999/xlink" viewBox="0 0 111.5 111.5"><defs><style>.cls-1,.cls-3,.cls-7{fill:none;}.cls-2{fill:#ff2397;}.cls-3,.cls-7{stroke:#fff;stroke-linecap:round;stroke-linejoin:round;}.cls-3{stroke-width:2px;}.cls-4{opacity:0.3;}.cls-5{clip-path:url(#clip-path);}.cls-6{fill:#fff;}.cls-7{stroke-width:3px;}</style><clipPath id="clip-path"><rect class="cls-1" x="21.75" y="48.3" width="69.15" height="35.76"/></clipPath></defs><title>Asset 2</title><g id="Layer_2" data-name="Layer 2"><g id="Layer_1-2" data-name="Layer 1"><path class="cls-2" d="M55.75,111.5h0A55.75,55.75,0,1,1,111.5,55.75,55.75,55.75,0,0,1,55.75,111.5"/><path class="cls-3" d="M104.41,55.49A48.66,48.66,0,1,1,55.75,6.83,48.67,48.67,0,0,1,104.41,55.49Z"/><g class="cls-4"><g class="cls-5"><polygon class="cls-6" points="82.83 84.06 29.82 84.06 21.75 48.3 90.89 48.3 82.83 84.06"/></g></g><polygon class="cls-7" points="82.83 84.06 29.82 84.06 21.75 48.3 90.89 48.3 82.83 84.06"/><line class="cls-7" x1="38.42" y1="49.96" x2="42.45" y2="84.06"/><line class="cls-7" x1="56.73" y1="49.96" x2="56.64" y2="84.06"/><line class="cls-7" x1="75.03" y1="50.13" x2="70.82" y2="84.16"/><line class="cls-7" x1="86.33" y1="66.18" x2="26.31" y2="66.18"/><polyline class="cls-7" points="37.78 48.3 47.11 28.16 51.29 32.59 44.84 48.3"/><polyline class="cls-7" points="74.96 48.3 65.64 28.16 61.46 32.59 67.91 48.3"/></g></g></svg>