<svg xmlns="http://www.w3.org/2000/svg" xmlns:xlink="http://www.w3.org/1999/xlink" viewBox="0 0 111.5 111.5"><defs><style>.cls-1,.cls-3,.cls-7{fill:none;}.cls-2{fill:#ff2397;}.cls-3,.cls-7{stroke:#fff;stroke-linecap:round;stroke-linejoin:round;}.cls-3{stroke-width:2px;}.cls-4{opacity:0.3;}.cls-5{clip-path:url(#clip-path);}.cls-6{fill:#fff;}.cls-7{stroke-width:3px;}</style><clipPath id="clip-path"><rect class="cls-1" x="19" y="30.23" width="73.5" height="41.65"/></clipPath></defs><title>Asset 3</title><g id="Layer_2" data-name="Layer 2"><g id="Layer_1-2" data-name="Layer 1"><path class="cls-2" d="M55.75,111.5h0A55.75,55.75,0,1,1,111.5,55.75,55.75,55.75,0,0,1,55.75,111.5"/><path class="cls-3" d="M104.41,55.49A48.66,48.66,0,1,1,55.75,6.83,48.67,48.67,0,0,1,104.41,55.49Z"/><g class="cls-4"><g class="cls-5"><path class="cls-6" d="M81.62,50.12a10.75,10.75,0,0,0-3,.43c0-.06,0-.11,0-.17a10.39,10.39,0,0,0-13.42-9.94,12.55,12.55,0,0,0-24.88,2.34c0,.35,0,.69,0,1A14.8,14.8,0,1,0,33.8,71.88H81.62a10.88,10.88,0,0,0,0-21.76"/></g></g><path class="cls-7" d="M81.62,50.12a10.75,10.75,0,0,0-3,.43c0-.06,0-.11,0-.17a10.39,10.39,0,0,0-13.42-9.94,12.55,12.55,0,0,0-24.88,2.34c0,.35,0,.69,0,1A14.8,14.8,0,1,0,33.8,71.88H81.62a10.88,10.88,0,0,0,0-21.76Z"/><path class="cls-6" d="M44.48,63.48a5.29,5.29,0,0,1-2.95-.78,4.82,4.82,0,0,1-1.82-2.32,12.36,12.36,0,0,1,0-7.67,4.9,4.9,0,0,1,1.82-2.35,5.22,5.22,0,0,1,2.95-.79,4.63,4.63,0,0,1,4,2.07,4.47,4.47,0,0,1,.73,2h-.83A4.45,4.45,0,0,0,47.7,52a3.66,3.66,0,0,0-1.3-1.2,3.87,3.87,0,0,0-1.92-.46A4.36,4.36,0,0,0,42,51a4.12,4.12,0,0,0-1.52,2.07,10.13,10.13,0,0,0-.5,3.46,7.72,7.72,0,0,0,1.13,4.64,4,4,0,0,0,3.42,1.52,3.87,3.87,0,0,0,1.92-.45,3.63,3.63,0,0,0,1.3-1.19,4.57,4.57,0,0,0,.67-1.63h.83a4.34,4.34,0,0,1-.46,1.5,4.73,4.73,0,0,1-1,1.29,4.47,4.47,0,0,1-1.44.91A4.77,4.77,0,0,1,44.48,63.48Z"/><path class="cls-6" d="M56.61,63.48a5.3,5.3,0,0,1-2.94-.79,5,5,0,0,1-1.91-2.34,9.47,9.47,0,0,1-.67-3.8,9.62,9.62,0,0,1,.67-3.83,5.06,5.06,0,0,1,1.91-2.35,5.82,5.82,0,0,1,5.87,0,5,5,0,0,1,1.88,2.35,9.87,9.87,0,0,1,.66,3.84,9.66,9.66,0,0,1-.66,3.8,5,5,0,0,1-1.88,2.33A5.27,5.27,0,0,1,56.61,63.48Zm0-.77A4.57,4.57,0,0,0,59.16,62a4.15,4.15,0,0,0,1.57-2,9.69,9.69,0,0,0,.52-3.44,9.78,9.78,0,0,0-.53-3.47A4.19,4.19,0,0,0,59.14,51a4.45,4.45,0,0,0-2.53-.69,4.54,4.54,0,0,0-2.55.69,4.3,4.3,0,0,0-1.6,2.07,9.36,9.36,0,0,0-.55,3.46A9.24,9.24,0,0,0,52.46,60a4.22,4.22,0,0,0,1.6,2A4.62,4.62,0,0,0,56.61,62.71Z"/><path class="cls-6" d="M65.19,65l1.14-1c1.42-1.26,2.19-1.89,2.19-2.7,0-.52-.41-.9-1.11-.9a3,3,0,0,0-1.61.53l-.56-1.43a4.8,4.8,0,0,1,2.72-.8c1.87,0,2.86,1,2.86,2.27s-1,2.19-2.15,3.1l-.45.36v0H71v1.63H65.19Z"/></g></g></svg>