<svg xmlns="http://www.w3.org/2000/svg" xmlns:xlink="http://www.w3.org/1999/xlink" viewBox="0 0 111.5 111.5"><defs><style>.cls-1,.cls-3,.cls-7{fill:none;}.cls-2{fill:#ff2397;}.cls-3,.cls-7{stroke:#fff;stroke-linecap:round;stroke-linejoin:round;}.cls-3{stroke-width:2px;}.cls-4{opacity:0.3;}.cls-5{clip-path:url(#clip-path);}.cls-6{fill:#fff;}.cls-7{stroke-width:3px;}</style><clipPath id="clip-path"><rect class="cls-1" x="21.75" y="40.71" width="42.37" height="24.65"/></clipPath></defs><title>Asset 4</title><g id="Layer_2" data-name="Layer 2"><g id="Layer_1-2" data-name="Layer 1"><path class="cls-2" d="M55.75,111.5h0A55.75,55.75,0,1,1,111.5,55.75,55.75,55.75,0,0,1,55.75,111.5"/><path class="cls-3" d="M104.41,55.49A48.66,48.66,0,1,1,55.75,6.83,48.67,48.67,0,0,1,104.41,55.49Z"/><g class="cls-4"><g class="cls-5"><path class="cls-6" d="M64.12,58.82s-11-29.28-42.37-13.38c0,0,14.33,33.77,42.37,13.38"/></g></g><path class="cls-7" d="M37.74,51s33.64-3.37,39,34.14"/><path class="cls-7" d="M64.12,58.82s-11-29.28-42.37-13.38C21.75,45.44,36.08,79.21,64.12,58.82Z"/><path class="cls-7" d="M59,80,40.9,87.32A7.78,7.78,0,0,1,30.79,83c-4-9.9,9.13-13.38,11.58-7.3,2.81,7-7.24,7.85-5.86,2.59"/><path class="cls-7" d="M87.42,31.56,69.29,38.84a7.77,7.77,0,0,1-10.11-4.31c-4-9.9,9.13-13.38,11.58-7.3,2.81,7-7.24,7.85-5.86,2.59"/></g></g></svg>