<svg xmlns="http://www.w3.org/2000/svg" xmlns:xlink="http://www.w3.org/1999/xlink" viewBox="0 0 111.5 111.5"><defs><style>.cls-1,.cls-3,.cls-7{fill:none;}.cls-2{fill:#ff2397;}.cls-3,.cls-7{stroke:#fff;stroke-linecap:round;stroke-linejoin:round;}.cls-3{stroke-width:2px;}.cls-4{opacity:0.3;}.cls-5{clip-path:url(#clip-path);}.cls-6{fill:#fff;}.cls-7{stroke-width:3px;}</style><clipPath id="clip-path"><rect class="cls-1" x="36.24" y="24.16" width="39.02" height="63.18"/></clipPath></defs><title>Asset 5</title><g id="Layer_2" data-name="Layer 2"><g id="Layer_1-2" data-name="Layer 1"><path class="cls-2" d="M55.75,111.5h0A55.75,55.75,0,1,1,111.5,55.75,55.75,55.75,0,0,1,55.75,111.5"/><path class="cls-3" d="M104.41,55.49A48.66,48.66,0,1,1,55.75,6.83,48.67,48.67,0,0,1,104.41,55.49Z"/><g class="cls-4"><g class="cls-5"><path class="cls-6" d="M75.24,68.9C76,46.22,55.75,24.16,55.75,24.16S35.54,46.22,36.26,68.9c.78,24.58,38.19,24.58,39,0"/></g></g><path class="cls-7" d="M75.24,68.9C76,46.22,55.75,24.16,55.75,24.16S35.54,46.22,36.26,68.9C37,93.48,74.45,93.48,75.24,68.9Z"/><path class="cls-7" d="M62.31,45.8S70.39,63,63.56,75.16"/></g></g></svg>