<svg xmlns="http://www.w3.org/2000/svg" xmlns:xlink="http://www.w3.org/1999/xlink" viewBox="0 0 111.5 111.5"><defs><style>.cls-1,.cls-3,.cls-4{fill:none;}.cls-2{fill:#ff2397;}.cls-3,.cls-4{stroke:#fff;stroke-linecap:round;stroke-linejoin:round;}.cls-3{stroke-width:2px;}.cls-4{stroke-width:3px;}.cls-5{opacity:0.3;}.cls-6{clip-path:url(#clip-path);}.cls-7{fill:#fff;}</style><clipPath id="clip-path"><rect class="cls-1" x="44.49" y="20.79" width="24.75" height="39.1"/></clipPath></defs><title>Asset 6</title><g id="Layer_2" data-name="Layer 2"><g id="Layer_1-2" data-name="Layer 1"><path class="cls-2" d="M55.75,111.5h0A55.75,55.75,0,1,1,111.5,55.75,55.75,55.75,0,0,1,55.75,111.5"/><path class="cls-3" d="M104.41,55.49A48.66,48.66,0,1,1,55.75,6.83,48.67,48.67,0,0,1,104.41,55.49Z"/><path class="cls-4" d="M33.59,90.41l9.64-6.71a13,13,0,0,1,7.42-2.33h8.78A13,13,0,0,0,68.19,78l12-11a1.88,1.88,0,0,0-2.41-2.88l-9.12,7a8.64,8.64,0,0,1-5.26,1.79H51.94"/><path class="cls-4" d="M27.37,77.42A161.83,161.83,0,0,0,41.31,67.25a10.53,10.53,0,0,1,13.93,0c1.55,1.45,4.45,1.71,6.9,1.61,2.3-.08,4,1.3,4,3.6"/><g class="cls-5"><g class="cls-6"><path class="cls-7" d="M69.23,48.48c.46-14-12.36-27.69-12.36-27.69S44.05,34.45,44.5,48.48c.5,15.22,24.24,15.22,24.73,0"/></g></g><path class="cls-4" d="M69.23,48.48c.46-14-12.36-27.69-12.36-27.69S44.05,34.45,44.5,48.48C45,63.7,68.74,63.7,69.23,48.48Z"/><path class="cls-4" d="M59,34.19s5.12,10.64.79,18.17"/><path class="cls-3" d="M32.63,26.1s3.28,3.22,10-2.28C30.47,34.3,35.1,56.41,35.1,56.41"/><path class="cls-3" d="M42.67,23.82s-3.92,6.34,0,9.25"/><path class="cls-3" d="M85.44,53S81.62,50.4,76,57.05c10.07-12.53-1.7-33.42-1.7-33.42"/><path class="cls-3" d="M76,57.05s2.69-6.95-1.7-9.09"/></g></g></svg>