<svg xmlns="http://www.w3.org/2000/svg" xmlns:xlink="http://www.w3.org/1999/xlink" viewBox="0 0 111.5 111.5"><defs><style>.cls-1,.cls-3,.cls-9{fill:none;}.cls-2{fill:#ff2397;}.cls-3,.cls-9{stroke:#fff;stroke-linecap:round;stroke-linejoin:round;}.cls-3{stroke-width:2px;}.cls-4{opacity:0.5;}.cls-5{clip-path:url(#clip-path);}.cls-6{fill:#fff;}.cls-7{clip-path:url(#clip-path-2);}.cls-8{clip-path:url(#clip-path-3);}.cls-9{stroke-width:2.35px;}.cls-10{clip-path:url(#clip-path-4);}.cls-11{clip-path:url(#clip-path-5);}</style><clipPath id="clip-path"><rect class="cls-1" x="52.18" y="28.25" width="27.06" height="26.66"/></clipPath><clipPath id="clip-path-2"><rect class="cls-1" x="37.79" y="24.05" width="22.46" height="29.76"/></clipPath><clipPath id="clip-path-3"><rect class="cls-1" x="24.63" y="35.09" width="19.5" height="18.73"/></clipPath><clipPath id="clip-path-4"><rect class="cls-1" x="58.42" y="47.63" width="22.56" height="22.49"/></clipPath><clipPath id="clip-path-5"><rect class="cls-1" x="75.26" y="40.26" width="14.43" height="14.64"/></clipPath></defs><title>Asset 7</title><g id="Layer_2" data-name="Layer 2"><g id="Layer_1-2" data-name="Layer 1"><path class="cls-2" d="M55.75,111.5h0A55.75,55.75,0,1,1,111.5,55.75,55.75,55.75,0,0,1,55.75,111.5"/><path class="cls-3" d="M104.41,55.49A48.66,48.66,0,1,1,55.75,6.83,48.67,48.67,0,0,1,104.41,55.49Z"/><g class="cls-4"><g class="cls-5"><path class="cls-6" d="M75.26,48C70,46.48,65.08,49.9,63.44,54.91H52.18l.12-1.1s-1.24-5.6,4.23-6.18c0,0-1.41-13.1,7.06-10.63,0,0,.61-9.84,7.23-8.65,7.56,1.37,2.39,10.23,2.39,10.23s4.82.13,5.88,3.89S75.26,48,75.26,48"/></g></g><g class="cls-4"><g class="cls-7"><path class="cls-6" d="M59.1,37.47c-3.39,2.5-2.57,10.16-2.57,10.16-5.47.58-4.23,6.18-4.23,6.18H43.56s2.68-8.6-3.58-11.33c0,0-4.49-3.4-.63-6.29s6.21,1.34,6.21,1.34-3-6.72,1.51-8.24,4.56,1.93,4.56,1.93.55-8.81,5.93-6.9c6,2.16,0,8.28,0,8.28s4.56,1.83,1.54,4.87"/></g></g><g class="cls-4"><g class="cls-8"><path class="cls-6" d="M43.56,53.81S47,42.72,36.92,41.73s-8.47-6.64-8.47-6.64-7.77,7.78-1.13,18.72"/></g></g><path class="cls-9" d="M87.89,54.91a32.14,32.14,0,0,1-64.28,0Z"/><polyline class="cls-9" points="43.05 84.56 43.05 91.96 68.44 91.96 68.44 84.44"/><path class="cls-9" d="M43.56,53.81S47,42.72,36.92,41.73s-8.47-6.64-8.47-6.64-7.77,7.78-1.13,18.72"/><path class="cls-9" d="M31.63,45.12s3.88,4,4.31,8.69"/><path class="cls-2" d="M58.42,69.66a18.41,18.41,0,0,0,4.46-11.25c0-7.55,7.45-13.49,14.57-9.5,8.87,5,.48,24.44-19,20.75"/><path class="cls-9" d="M58.42,69.66a18.41,18.41,0,0,0,4.46-11.25c0-7.55,7.45-13.49,14.57-9.5C86.32,53.89,77.93,73.35,58.42,69.66Z"/><path class="cls-2" d="M77.45,48.91S74.84,57.78,69,60.82"/><path class="cls-9" d="M77.45,48.91S74.84,57.78,69,60.82"/><path class="cls-9" d="M52.3,53.81s-1.23-5.6,4.23-6.18c0,0-1.41-13.1,7.06-10.63,0,0,.61-9.84,7.23-8.65,7.56,1.37,2.4,10.23,2.4,10.23s4.81.13,5.87,3.88S75.26,48,75.26,48"/><line class="cls-9" x1="68.98" y1="37.53" x2="64.22" y2="53.1"/><path class="cls-9" d="M40,42.48s-4.49-3.4-.63-6.3,6.21,1.35,6.21,1.35-3-6.72,1.52-8.24,4.55,1.93,4.55,1.93.55-8.81,5.93-6.9c6,2.15,0,8.28,0,8.28s4.62,1.85,1.48,4.93"/><line class="cls-9" x1="53.42" y1="35.09" x2="46.83" y2="54.91"/><path class="cls-9" d="M87.89,54.91a9.82,9.82,0,0,0,0-11.26A7.51,7.51,0,0,0,78.38,41"/><path class="cls-9" d="M59.1,37.47c-3.39,2.5-2.57,10.16-2.57,10.16-5.47.58-4.23,6.18-4.23,6.18H43.56s2.68-8.6-3.58-11.33c0,0-4.49-3.4-.63-6.29s6.21,1.34,6.21,1.34-3-6.72,1.51-8.24,4.56,1.93,4.56,1.93.55-8.81,5.93-6.9c6,2.16,0,8.28,0,8.28S62.12,34.43,59.1,37.47Z"/><path class="cls-9" d="M59.1,37.47l-.06.06"/><g class="cls-4"><g class="cls-10"><path class="cls-6" d="M58.42,69.66a18.41,18.41,0,0,0,4.46-11.25c0-7.55,7.45-13.49,14.57-9.5,8.87,5,.48,24.44-19,20.75"/></g></g><g class="cls-4"><g class="cls-11"><path class="cls-6" d="M87.88,54.91H81a7,7,0,0,0-3.52-6A9.7,9.7,0,0,0,75.26,48s4.89-1.78,3.83-5.53A4.57,4.57,0,0,0,78.38,41a7.49,7.49,0,0,1,9.5,2.65,9.82,9.82,0,0,1,0,11.26"/></g></g><path class="cls-9" d="M31.63,61.39s2.69,13.85,14.74,18.06"/></g></g></svg>