<svg xmlns="http://www.w3.org/2000/svg" xmlns:xlink="http://www.w3.org/1999/xlink" viewBox="0 0 111.5 111.5"><defs><style>.cls-1,.cls-3,.cls-4{fill:none;}.cls-2{fill:#ff2397;}.cls-3,.cls-4{stroke:#fff;stroke-linecap:round;stroke-linejoin:round;}.cls-3{stroke-width:2px;}.cls-4{stroke-width:3px;}.cls-5{opacity:0.5;}.cls-6{clip-path:url(#clip-path);}.cls-7{fill:#fff;}</style><clipPath id="clip-path"><rect class="cls-1" x="33.55" y="21.37" width="32.89" height="12.35"/></clipPath></defs><title>Asset 8</title><g id="Layer_2" data-name="Layer 2"><g id="Layer_1-2" data-name="Layer 1"><path class="cls-2" d="M55.75,111.5h0A55.75,55.75,0,1,1,111.5,55.75,55.75,55.75,0,0,1,55.75,111.5"/><path class="cls-3" d="M104.41,55.49A48.66,48.66,0,1,1,55.75,6.83,48.67,48.67,0,0,1,104.41,55.49Z"/><path class="cls-4" d="M41.55,54.08H53a8.64,8.64,0,0,0,5.27-1.78l9.12-7a1.87,1.87,0,0,1,2.4,2.87l-12,11A13,13,0,0,1,49,62.56s-19.63.24-26.88.24"/><path class="cls-4" d="M55.75,53.64c0-2.3-1.7-3.68-4-3.59-2.45.1-5.35-.16-6.9-1.62a10.54,10.54,0,0,0-13.93,0H22.16"/><path class="cls-4" d="M64.67,76.75H53.2A8.7,8.7,0,0,1,47.93,75l-9.12-7a1.87,1.87,0,0,0-2.4,2.87l12,11a12.94,12.94,0,0,0,8.75,3.4s19.63.24,26.88.24"/><path class="cls-4" d="M50.47,76.31c0-2.3,1.71-3.68,4-3.59,2.45.09,5.35-.16,6.9-1.62a10.55,10.55,0,0,1,13.94,0h8.75"/><path class="cls-4" d="M34.5,46.34c-3.57-5.16-2.18-12.62-2.18-12.62H67.73s2.19,11.82-6.06,16"/><path class="cls-4" d="M36.26,33.72s-4.94-4.41-1.49-7.17,7.36,2.59,7.36,2.59-2.62-7.1,3-7.72c6.1-.68,4.33,7.22,4.33,7.22s3-6,7.41-4.42.88,6,.88,6,3.36-4.52,6.87-2.71c3.93,2,.16,6.2.16,6.2"/><g class="cls-5"><g class="cls-6"><path class="cls-7" d="M64.82,33.72H36.27s-4.94-4.41-1.5-7.18,7.07,2.2,7.35,2.58c-.14-.4-2.43-7.1,3-7.71,6.1-.67,4.34,7.23,4.34,7.23s3-6,7.4-4.42c4.11,1.48,1.38,5.35.94,5.93.48-.6,3.59-4.3,6.81-2.63,3.93,2,.17,6.2.17,6.2"/></g></g></g></g></svg>