<svg xmlns="http://www.w3.org/2000/svg" xmlns:xlink="http://www.w3.org/1999/xlink" viewBox="0 0 111.5 111.5"><defs><style>.cls-1,.cls-3,.cls-7{fill:none;}.cls-2{fill:#ff2397;}.cls-3,.cls-7{stroke:#fff;stroke-linecap:round;stroke-linejoin:round;}.cls-3{stroke-width:2px;}.cls-4{opacity:0.3;}.cls-5{clip-path:url(#clip-path);}.cls-6{fill:#fff;}.cls-7{stroke-width:3px;}</style><clipPath id="clip-path"><rect class="cls-1" x="22.97" y="59" width="67.07" height="26.82"/></clipPath></defs><title>Asset 9</title><g id="Layer_2" data-name="Layer 2"><g id="Layer_1-2" data-name="Layer 1"><path class="cls-2" d="M55.75,111.5h0A55.75,55.75,0,1,1,111.5,55.75,55.75,55.75,0,0,1,55.75,111.5"/><path class="cls-3" d="M104.41,55.75A48.66,48.66,0,1,1,55.75,7.09,48.67,48.67,0,0,1,104.41,55.75Z"/><g class="cls-4"><g class="cls-5"><path class="cls-6" d="M90,61.35A2.17,2.17,0,0,1,89.18,63a3.27,3.27,0,0,1-2.05.7h-1l-5.46,22.1H32.37l-5.46-22.1h-1A2.68,2.68,0,0,1,23,61.35a2.13,2.13,0,0,1,.85-1.66A3.25,3.25,0,0,1,25.87,59H87.13A2.68,2.68,0,0,1,90,61.35"/></g></g><line class="cls-7" x1="36.59" y1="63.5" x2="39.11" y2="81.56"/><line class="cls-7" x1="44.66" y1="63.5" x2="46.16" y2="81.56"/><line class="cls-7" x1="52.73" y1="63.5" x2="53.21" y2="81.56"/><line class="cls-7" x1="60.8" y1="63.5" x2="60.26" y2="81.56"/><line class="cls-7" x1="68.88" y1="63.5" x2="67.31" y2="81.56"/><line class="cls-7" x1="76.95" y1="63.5" x2="74.35" y2="81.56"/><path class="cls-7" d="M90,61.35A2.17,2.17,0,0,1,89.18,63a3.27,3.27,0,0,1-2.05.7h-1l-5.46,22.1H32.37l-5.46-22.1h-1A2.68,2.68,0,0,1,23,61.35a2.13,2.13,0,0,1,.85-1.66A3.25,3.25,0,0,1,25.87,59H87.13A2.68,2.68,0,0,1,90,61.35Z"/><path class="cls-7" d="M64.78,59s-5.85-4.4-1.71-8.54c2.9-2.89,5.8.68,5.8.68s-5.8-8.85-.78-10.55,6.26,4.21,6.26,4.21S74,32.6,79.24,34.3s1.88,10.9,1.88,10.9,2.79-6.22,6.12-3.59C91.57,45.05,84,50.8,84,50.8s5.76-2.55,6,2.22-6,6-6,6"/><line class="cls-7" x1="75.82" y1="59" x2="76.95" y2="50.05"/><path class="cls-7" d="M53.21,59s-7.84-10.41,0-21.27,14.1-12,14.1-12,3,9.16,2.38,14.61"/><path class="cls-7" d="M57.32,59s-1.84-9.19,4.27-20.59"/><path class="cls-7" d="M54.91,35.5s-6.37-9.58-15.15-9.82c0,0-11.25,19.17,4.57,33.32"/><line class="cls-7" x1="44.66" y1="36.07" x2="49.72" y2="48.7"/><path class="cls-7" d="M36.59,34.29s-3-7-6.69-5.15S29,36.07,29,36.07s-5.39-.62-6,4,4.92,4,4.92,4-8,1-6.16,6S29,51.32,29,51.32,20.92,55,25.87,59"/><path class="cls-7" d="M32.71,48a67.64,67.64,0,0,0,3.88,11"/></g></g></svg>