<svg xmlns="http://www.w3.org/2000/svg" xmlns:xlink="http://www.w3.org/1999/xlink" viewBox="0 0 111.5 111.5"><defs><style>.cls-1,.cls-3,.cls-4{fill:none;}.cls-2{fill:#ff2397;}.cls-3,.cls-4{stroke:#fff;stroke-linecap:round;stroke-linejoin:round;}.cls-3{stroke-width:2px;}.cls-4{stroke-width:3px;}.cls-5{opacity:0.3;}.cls-6{clip-path:url(#clip-path);}.cls-7{fill:#fff;}</style><clipPath id="clip-path"><rect class="cls-1" x="36.42" y="22.89" width="38.95" height="36.05"/></clipPath></defs><title>Asset 10</title><g id="Layer_2" data-name="Layer 2"><g id="Layer_1-2" data-name="Layer 1"><path class="cls-2" d="M55.75,111.5h0A55.75,55.75,0,1,1,111.5,55.75,55.75,55.75,0,0,1,55.75,111.5"/><path class="cls-3" d="M104.41,55.75A48.66,48.66,0,1,1,55.75,7.09,48.67,48.67,0,0,1,104.41,55.75Z"/><path class="cls-4" d="M55.89,58.93C79,50.37,78.53,28.11,70,24c-9.6-4.57-14.06,6-14.06,6s-4.46-10.6-14.06-6C33.25,28.11,32.81,50.37,55.89,58.93Z"/><path class="cls-4" d="M63.38,87.72V76.22a14.33,14.33,0,0,1,6.42-12l7.59-5A2,2,0,0,1,80,62.13l-5.61,7.18V73"/><path class="cls-4" d="M77.39,59.26,82.48,40a2.15,2.15,0,0,1,4.23.55V63.47A14.42,14.42,0,0,1,82,74.1l-3.34,3.06a12.28,12.28,0,0,0-4,9.06v2.39"/><path class="cls-4" d="M48.12,87.72V76.22a14.34,14.34,0,0,0-6.43-12l-7.58-5a2,2,0,0,0-2.65,2.87l5.61,7.18V73"/><path class="cls-4" d="M34.11,59.26,29,40a2.15,2.15,0,0,0-4.22.55V63.47A14.41,14.41,0,0,0,29.46,74.1l3.34,3.06a12.29,12.29,0,0,1,4,9.06v2.39"/><g class="cls-5"><g class="cls-6"><path class="cls-7" d="M55.89,58.93C79,50.37,78.53,28.11,70,24c-9.6-4.57-14.06,6-14.06,6s-4.46-10.6-14.06-6c-8.58,4.08-9,26.34,14.06,34.9"/></g></g></g></g></svg>