<svg xmlns="http://www.w3.org/2000/svg" viewBox="0 0 1898.04 250.86"><defs><style>.cls-1{fill:none;stroke:#8ac447;stroke-linecap:round;stroke-linejoin:round;stroke-width:5px;}</style></defs><title>Asset 1</title><g id="Layer_2" data-name="Layer 2"><g id="Layer_1-2" data-name="Layer 1"><path class="cls-1" d="M64.19,245.75c1.3-44.21,9.89-97.82,37.74-142.36"/><path class="cls-1" d="M66.58,212.25S69.37,107.72,44.07,51.8"/><path class="cls-1" d="M44.07,51.8S49.94,22.35,29.21,4.91C29.21,4.91,23.11,30.26,44.07,51.8Z"/><path class="cls-1" d="M83.09,59.69s6.59-21.91,26.77-26.23A40.61,40.61,0,0,1,83.09,59.69Z"/><path class="cls-1" d="M101.93,103.39s2.37-22.76,21.4-30.78A40.62,40.62,0,0,1,101.93,103.39Z"/><path class="cls-1" d="M35.46,124.88S23.09,105.62,2.5,107A40.64,40.64,0,0,0,35.46,124.88Z"/><path class="cls-1" d="M83.09,59.69s-24.42,24.59-20.9,66"/><path class="cls-1" d="M100.35,128.22s11.66-19.68,32.3-19A40.62,40.62,0,0,1,100.35,128.22Z"/><path class="cls-1" d="M100.35,128.22s-9.58,5.82-19,18.38"/><path class="cls-1" d="M35.46,125.28c11.11,7.16,26.62,20.77,30.28,42.52"/><path class="cls-1" d="M45.16,132.58a41.74,41.74,0,0,1,.05-15.4"/><path class="cls-1" d="M69.52,194.69a41.7,41.7,0,0,1,11.34-10.43"/><path class="cls-1" d="M53.18,141.49a41.89,41.89,0,0,0-15.4.35"/><path class="cls-1" d="M504,248.36c7.5-43.4,23.47-94.85,57-134.81"/><path class="cls-1" d="M510.84,216.44s17.28-103.13,0-162"/><path class="cls-1" d="M510.84,54.42s9.9-28.34-8.2-48.49C502.64,5.93,493.08,30.18,510.84,54.42Z"/><path class="cls-1" d="M548.39,67.66S558,46.87,578.55,45.4A40.63,40.63,0,0,1,548.39,67.66Z"/><path class="cls-1" d="M476.51,187.62s-5.51-22.21-25.46-27.5A40.61,40.61,0,0,0,476.51,187.62Z"/><path class="cls-1" d="M561,113.55s5.52-22.21,25.47-27.5A40.64,40.64,0,0,1,561,113.55Z"/><path class="cls-1" d="M481.33,118.16s-9.57-20.78-30.16-22.25A40.6,40.6,0,0,0,481.33,118.16Z"/><path class="cls-1" d="M548.39,67.66s-27.61,21-29.87,62.4"/><path class="cls-1" d="M563.06,145.2s20.93-9.26,37.34,3.26A40.61,40.61,0,0,1,563.06,145.2Z"/><path class="cls-1" d="M563.06,145.2s-11.18-.82-26.18,3.91"/><path class="cls-1" d="M493.68,201.49s-4.22-22.5,11.73-35.6A40.61,40.61,0,0,1,493.68,201.49Z"/><path class="cls-1" d="M493.68,201.49a62.55,62.55,0,0,0-2.13,12.31"/><path class="cls-1" d="M481.33,118.16s33.88,18.88,34.85,54.15"/><path class="cls-1" d="M476.51,187.62C488,203.77,494.46,218,504,248.36"/><path class="cls-1" d="M500.7,134.57a42,42,0,0,1,2.18-15.25"/><path class="cls-1" d="M516.19,199.46a41.88,41.88,0,0,1,12.67-8.75"/><path class="cls-1" d="M507.4,144.51a41.89,41.89,0,0,0-15.3-1.79"/><path class="cls-1" d="M1155.85,248.36c7.5-43.4,23.47-94.85,57-134.81"/><path class="cls-1" d="M1162.72,216.44s17.29-103.13,0-162"/><path class="cls-1" d="M1162.72,54.42s9.91-28.34-8.19-48.49C1154.53,5.93,1145,30.18,1162.72,54.42Z"/><path class="cls-1" d="M1200.27,67.66s9.57-20.79,30.16-22.26A40.63,40.63,0,0,1,1200.27,67.66Z"/><path class="cls-1" d="M1128.4,187.62s-5.52-22.21-25.47-27.5A40.61,40.61,0,0,0,1128.4,187.62Z"/><path class="cls-1" d="M1212.85,113.55s5.52-22.21,25.47-27.5A40.61,40.61,0,0,1,1212.85,113.55Z"/><path class="cls-1" d="M1133.22,118.16s-9.57-20.78-30.16-22.25A40.6,40.6,0,0,0,1133.22,118.16Z"/><path class="cls-1" d="M1200.27,67.66s-27.6,21-29.87,62.4"/><path class="cls-1" d="M1204.29,147.55s14.77-17.49,35-13.41A40.63,40.63,0,0,1,1204.29,147.55Z"/><path class="cls-1" d="M1204.29,147.55s-10.41,4.15-21.82,15"/><path class="cls-1" d="M1145.56,201.49s-4.21-22.5,11.74-35.6A40.64,40.64,0,0,1,1145.56,201.49Z"/><path class="cls-1" d="M1145.56,201.49a63.1,63.1,0,0,0-2.12,12.31"/><path class="cls-1" d="M1133.22,118.16s33.87,18.88,34.85,54.15"/><path class="cls-1" d="M1128.4,187.62c11.51,16.15,17.94,30.37,27.45,60.74"/><path class="cls-1" d="M1152.58,134.57a41.77,41.77,0,0,1,2.19-15.25"/><path class="cls-1" d="M1168.07,199.46a41.8,41.8,0,0,1,12.68-8.75"/><path class="cls-1" d="M1159.28,144.51a41.84,41.84,0,0,0-15.3-1.79"/><path class="cls-1" d="M1573.9,248.36c2.07-38.85,10.38-82.16,32-119.75"/><path class="cls-1" d="M1578.22,213s17.28-103.13,0-162"/><path class="cls-1" d="M1578.22,51s9.9-28.35-8.2-48.5C1570,2.5,1560.46,26.75,1578.22,51Z"/><path class="cls-1" d="M1602.05,79.37s5.45-22.22,25.39-27.57A40.61,40.61,0,0,1,1602.05,79.37Z"/><path class="cls-1" d="M1543.89,184.19s-5.51-22.21-25.47-27.5A40.64,40.64,0,0,0,1543.89,184.19Z"/><path class="cls-1" d="M1605.94,128.61s1.55-22.84,20.27-31.53A40.61,40.61,0,0,1,1605.94,128.61Z"/><path class="cls-1" d="M1548.71,114.74s-9.57-20.79-30.16-22.26A40.63,40.63,0,0,0,1548.71,114.74Z"/><path class="cls-1" d="M1602.05,79.37a90.22,90.22,0,0,0-16.15,47.27"/><path class="cls-1" d="M1603.44,163.57s11.49-19.79,32.13-19.31A40.63,40.63,0,0,1,1603.44,163.57Z"/><path class="cls-1" d="M1603.44,163.57s-9.52,5.91-18.87,18.55"/><path class="cls-1" d="M1561.05,198.06s-4.21-22.49,11.74-35.6A40.6,40.6,0,0,1,1561.05,198.06Z"/><path class="cls-1" d="M1561.05,198.06s-.4,2.35-1.06,10"/><path class="cls-1" d="M1548.71,114.74s33.88,18.87,34.85,54.14"/><path class="cls-1" d="M1543.89,184.19c11.51,16.16,20.89,27.53,30.4,57.9"/><path class="cls-1" d="M1568.07,131.14a42,42,0,0,1,2.19-15.25"/><path class="cls-1" d="M1576.84,221a41.88,41.88,0,0,1,11-10.84"/><path class="cls-1" d="M1574.78,141.08a41.89,41.89,0,0,0-15.3-1.79"/><path class="cls-1" d="M209.66,248.36s-14.1-76.18,53.43-108.84"/><path class="cls-1" d="M209.66,248.36s-1.36-52.86,43.51-71"/><path class="cls-1" d="M209.66,248.36s15-48.58,76.53-65.89"/><path class="cls-1" d="M209.58,247.81s13-76.38-55-108.06"/><path class="cls-1" d="M209.58,247.81s.6-52.87-44.51-70.32"/><path class="cls-1" d="M209.58,247.81S193.91,199.45,132.12,183"/><line class="cls-1" x1="209.58" y1="110.63" x2="209.58" y2="247.81"/><path class="cls-1" d="M275.84,225.78S226.9,218,209.66,248.36"/><path class="cls-1" d="M143.49,225.78s48.94-7.75,66.17,22.58"/><path class="cls-1" d="M684.07,248.36S670,172.18,737.5,139.52"/><path class="cls-1" d="M684.07,248.36s-1.36-52.86,43.51-71"/><path class="cls-1" d="M684.07,248.36s15-48.58,76.53-65.89"/><path class="cls-1" d="M684,247.81s13-76.38-55-108.06"/><path class="cls-1" d="M684,247.81s.6-52.87-44.51-70.32"/><path class="cls-1" d="M684,247.81S668.32,199.45,606.53,183"/><line class="cls-1" x1="683.99" y1="110.63" x2="683.99" y2="247.81"/><path class="cls-1" d="M750.25,225.78s-48.94-7.75-66.18,22.58"/><path class="cls-1" d="M617.9,225.78s48.94-7.75,66.17,22.58"/><path class="cls-1" d="M999.71,248.36s-14.1-76.18,53.42-108.84"/><path class="cls-1" d="M999.71,248.36s-1.37-52.86,43.5-71"/><path class="cls-1" d="M999.71,248.36s15-48.58,76.52-65.89"/><path class="cls-1" d="M999.62,247.81s13-76.38-55-108.06"/><path class="cls-1" d="M999.62,247.81s.61-52.87-44.51-70.32"/><path class="cls-1" d="M999.62,247.81S984,199.45,922.16,183"/><line class="cls-1" x1="999.62" y1="110.63" x2="999.62" y2="247.81"/><path class="cls-1" d="M1065.88,225.78s-48.94-7.75-66.17,22.58"/><path class="cls-1" d="M933.54,225.78s48.93-7.75,66.17,22.58"/><path class="cls-1" d="M1421.89,248.36s-14.1-76.18,53.42-108.84"/><path class="cls-1" d="M1421.89,248.36s-1.37-52.86,43.5-71"/><path class="cls-1" d="M1421.89,248.36s15-48.58,76.52-65.89"/><path class="cls-1" d="M1421.8,247.81s13-76.38-55-108.06"/><path class="cls-1" d="M1421.8,247.81s.61-52.87-44.51-70.32"/><path class="cls-1" d="M1421.8,247.81s-15.67-48.36-77.46-64.79"/><line class="cls-1" x1="1421.8" y1="110.63" x2="1421.8" y2="247.81"/><path class="cls-1" d="M1488.06,225.78s-48.94-7.75-66.17,22.58"/><path class="cls-1" d="M1355.71,225.78s48.94-7.75,66.18,22.58"/><path class="cls-1" d="M1711.88,248.36s-14.1-76.18,53.42-108.84"/><path class="cls-1" d="M1711.88,248.36s-1.36-52.86,43.5-71"/><path class="cls-1" d="M1711.88,248.36s15-48.58,76.53-65.89"/><path class="cls-1" d="M1711.79,247.81s13-76.38-55-108.06"/><path class="cls-1" d="M1711.79,247.81s.61-52.87-44.5-70.32"/><path class="cls-1" d="M1711.79,247.81s-15.67-48.36-77.45-64.79"/><line class="cls-1" x1="1711.79" y1="110.63" x2="1711.79" y2="247.81"/><path class="cls-1" d="M1778.05,225.78s-48.94-7.75-66.17,22.58"/><path class="cls-1" d="M1645.71,225.78s48.94-7.75,66.17,22.58"/><path class="cls-1" d="M355,248.36c0-52.58,5.09-124.91,29.09-171.46"/><path class="cls-1" d="M384,76.07s15.58-20.94,41.73-19.37C425.71,56.7,409.06,78.48,384,76.07Z"/><path class="cls-1" d="M384,76.07s-.54-26.1-22.76-40C361.22,36.08,362.15,63.49,384,76.07Z"/><path class="cls-1" d="M366.77,126s15.58-20.94,41.73-19.37C408.5,106.62,391.85,128.4,366.77,126Z"/><path class="cls-1" d="M366.77,126s-.54-26.1-22.76-40C344,86,344.94,113.41,366.77,126Z"/><path class="cls-1" d="M358.45,175.58s12.45-23,38.56-25.1C397,150.48,383.61,174.41,358.45,175.58Z"/><path class="cls-1" d="M358.45,175.58s-4.25-25.76-28.21-36.36C330.24,139.22,335.05,166.22,358.45,175.58Z"/><path class="cls-1" d="M355.27,226.31s10.94-23.7,36.85-27.55C392.12,198.76,380.31,223.51,355.27,226.31Z"/><path class="cls-1" d="M355.27,226.31s-5.9-25.43-30.5-34.45C324.77,191.86,331.32,218.49,355.27,226.31Z"/><path class="cls-1" d="M849.51,248.36c0-52.58-5.09-124.91-29.1-171.46"/><path class="cls-1" d="M820.49,76.07S804.9,55.13,778.75,56.7C778.75,56.7,795.41,78.48,820.49,76.07Z"/><path class="cls-1" d="M820.49,76.07s.54-26.1,22.75-40C843.24,36.08,842.31,63.49,820.49,76.07Z"/><path class="cls-1" d="M837.69,126S822.11,105.05,796,106.62C796,106.62,812.62,128.4,837.69,126Z"/><path class="cls-1" d="M837.69,126s.55-26.1,22.76-40C860.45,86,859.52,113.41,837.69,126Z"/><path class="cls-1" d="M846,175.58s-12.45-23-38.57-25.1C807.45,150.48,820.85,174.41,846,175.58Z"/><path class="cls-1" d="M846,175.58s4.24-25.76,28.2-36.36C874.22,139.22,869.41,166.22,846,175.58Z"/><path class="cls-1" d="M849.19,226.31s-10.93-23.7-36.85-27.55C812.34,198.76,824.16,223.51,849.19,226.31Z"/><path class="cls-1" d="M849.19,226.31s5.9-25.43,30.5-34.45C879.69,191.86,873.14,218.49,849.19,226.31Z"/><path class="cls-1" d="M1280.49,248.36c0-52.58,5.08-124.91,29.09-171.46"/><path class="cls-1" d="M1309.51,76.07s15.58-20.94,41.73-19.37C1351.24,56.7,1334.58,78.48,1309.51,76.07Z"/><path class="cls-1" d="M1309.51,76.07s-.55-26.1-22.76-40C1286.75,36.08,1287.68,63.49,1309.51,76.07Z"/><path class="cls-1" d="M1292.3,126s15.58-20.94,41.73-19.37C1334,106.62,1317.37,128.4,1292.3,126Z"/><path class="cls-1" d="M1292.3,126s-.55-26.1-22.76-40C1269.54,86,1270.47,113.41,1292.3,126Z"/><path class="cls-1" d="M1284,175.58s12.45-23,38.56-25.1C1322.54,150.48,1309.14,174.41,1284,175.58Z"/><path class="cls-1" d="M1284,175.58s-4.25-25.76-28.21-36.36C1255.77,139.22,1260.58,166.22,1284,175.58Z"/><path class="cls-1" d="M1280.8,226.31s10.94-23.7,36.85-27.55C1317.65,198.76,1305.84,223.51,1280.8,226.31Z"/><path class="cls-1" d="M1280.8,226.31s-5.9-25.43-30.5-34.45C1250.3,191.86,1256.85,218.49,1280.8,226.31Z"/><path class="cls-1" d="M1824.78,248.36c0-52.58,5.09-124.91,29.1-171.46"/><path class="cls-1" d="M1853.8,76.07s15.58-20.94,41.74-19.37C1895.54,56.7,1878.88,78.48,1853.8,76.07Z"/><path class="cls-1" d="M1853.8,76.07s-.54-26.1-22.76-40C1831,36.08,1832,63.49,1853.8,76.07Z"/><path class="cls-1" d="M1836.59,126s15.58-20.94,41.74-19.37C1878.33,106.62,1861.67,128.4,1836.59,126Z"/><path class="cls-1" d="M1836.59,126s-.54-26.1-22.76-40C1813.83,86,1814.77,113.41,1836.59,126Z"/><path class="cls-1" d="M1828.27,175.58s12.45-23,38.56-25.1C1866.83,150.48,1853.44,174.41,1828.27,175.58Z"/><path class="cls-1" d="M1828.27,175.58s-4.24-25.76-28.2-36.36C1800.07,139.22,1804.88,166.22,1828.27,175.58Z"/><path class="cls-1" d="M1825.09,226.31s10.94-23.7,36.86-27.55C1862,198.76,1850.13,223.51,1825.09,226.31Z"/><path class="cls-1" d="M1825.09,226.31s-5.9-25.43-30.5-34.45C1794.59,191.86,1801.14,218.49,1825.09,226.31Z"/></g></g></svg>